<svg width="201" height="64" viewBox="0 0 201 64" fill="none" xmlns="http://www.w3.org/2000/svg">
<path d="M27.24 34.24C27.24 28.36 19.28 26.12 14.08 24.36C9.56 22.84 8.88 22.36 8.88 21.08C8.88 19.64 10.68 19 13.56 19C17.04 19 19.68 19.96 19.68 23.4H26.08C26.08 17.8 22.2 13.4 13.56 13.4C6.28 13.4 2.48 16.04 2.48 20.84C2.48 26.36 7.32 27.96 13.28 29.96C17.4 31.36 20.84 32.28 20.84 34.32C20.84 35.84 19.48 36.8 15.36 36.8C9.76 36.8 7.6 35.44 7.6 31.12H1.2C1.2 38.24 5 42.4 15.16 42.4C23.84 42.4 27.24 39.08 27.24 34.24ZM30.0563 21.8V49.6H36.4563V40.76L35.2563 37.16H36.8563C37.8963 39.84 39.8163 42.4 44.8163 42.4C50.6563 42.4 53.5763 37.64 53.5763 31.92C53.5763 26.2 50.6563 21.4 44.8163 21.4C39.8163 21.4 37.8963 23.96 36.8563 26.64H35.2563L36.4563 23.04V21.8H30.0563ZM36.4563 31.92C36.4563 28.48 38.3763 27 41.8163 27C45.2563 27 47.1763 28.48 47.1763 31.92C47.1763 35.36 45.2563 36.8 41.8163 36.8C38.3763 36.8 36.4563 35.36 36.4563 31.92ZM55.5844 36.48C55.5844 38.56 56.6644 42.4 62.9444 42.4C68.5844 42.4 70.5444 39.56 71.3044 36.2H72.9044L71.9044 38.6V39C71.9044 40.92 72.9844 42 74.9044 42H79.3444V36.4H76.4244V30.72C76.4244 24.08 71.5444 21.4 65.9844 21.4C60.3444 21.4 55.9844 24.4 55.9844 29.52H61.9844C61.9844 27.68 63.4244 26.6 65.9844 26.6C68.7444 26.6 70.0244 27.6 70.0244 29.24L63.6644 30.12C57.6644 30.96 55.5844 33 55.5844 36.48ZM61.9844 35.28C61.9844 34.12 62.9444 33.84 64.8644 33.56L70.0244 32.84C70.0244 35.32 67.7044 36.8 64.1844 36.8C63.1044 36.8 61.9844 36.44 61.9844 35.28ZM80.5453 31.88C80.5453 38.64 85.1453 42.4 91.5853 42.4C97.1053 42.4 102.145 39.4 102.425 33.64H96.0253C95.7853 35.44 94.1453 36.8 91.5853 36.8C88.5453 36.8 86.9453 35 86.9453 31.88C86.9453 28.8 88.5453 27 91.5853 27C94.1453 27 95.7853 28.36 96.0253 30.16H102.425C102.145 24.4 97.1053 21.4 91.5853 21.4C85.1453 21.4 80.5453 25.16 80.5453 31.88ZM104.413 31.64C104.413 37.36 107.973 42.4 115.733 42.4C122.733 42.4 126.053 37.8 126.453 34.88H120.053C119.653 36.4 117.973 37.2 115.733 37.2C112.093 37.2 110.413 35.56 110.413 33.24H125.733V31.24C125.733 25.12 121.333 21.4 115.053 21.4C108.773 21.4 104.413 25.24 104.413 31.64ZM110.413 29.64C110.413 28.12 111.493 26.6 115.053 26.6C118.613 26.6 119.733 28.12 119.733 29.64H110.413ZM139.636 13.8H129.236V42H139.636C147.156 42 154.996 40.04 154.996 27.88C154.996 15.76 147.156 13.8 139.636 13.8ZM139.636 36.4H135.636V19.4H139.636C144.636 19.4 148.596 19.8 148.596 27.88C148.596 36 144.636 36.4 139.636 36.4ZM156.991 31.88C156.991 38.96 162.031 42.4 168.391 42.4C174.711 42.4 179.751 38.96 179.751 31.88C179.751 24.84 174.711 21.4 168.391 21.4C162.031 21.4 156.991 24.84 156.991 31.88ZM163.391 31.88C163.391 28.52 165.351 27 168.391 27C171.391 27 173.351 28.52 173.351 31.88C173.351 35.28 171.391 36.8 168.391 36.8C165.351 36.8 163.391 35.28 163.391 31.88ZM191.756 36.8V27.4H198.396V21.8H191.756V16L185.356 18V21.8H180.556V27.4H185.356V39C185.356 41.2 186.556 42.48 188.756 42.4L199.196 42V36.4L191.756 36.8Z" fill="white"/>
</svg>
