<svg width="185" height="61" viewBox="0 0 185 61" fill="none" xmlns="http://www.w3.org/2000/svg">
<path d="M13.4 24.4L11.48 23.6C8.68 22.36 5.64 20.96 5.64 17.8C5.64 15.36 7.44 13.2 10.84 13.2C14.24 13.2 16.48 17.56 18.16 19.52L19.4 14.52C18.2 13.84 14.88 12.6 11.32 12.6C5.48 12.6 1.72 16.04 1.72 20.68C1.72 25.76 6.12 27.84 8.8 29.04L10.72 29.84C13.4 31.04 16.84 32.48 16.84 35.92C16.84 38.64 14.88 40.84 11.24 40.84C7.92 40.84 4.64 37.04 2.88 34.32L1.44 39.56C2.56 40.16 7.04 41.48 10.76 41.48C17.24 41.48 20.72 37.48 20.72 32.96C20.72 27.8 16.52 25.76 13.4 24.4ZM42.6694 22.56C41.1094 20.88 38.9494 19.88 36.5894 19.88C36.3094 19.88 35.9894 19.92 35.7094 19.92C33.2694 20.24 31.5894 21.52 30.0294 23.08C30.0294 23.08 27.7894 25.48 25.4294 22.68H24.3894V49.76H30.0294V39.76C31.3494 40.84 33.0694 41.48 35.1094 41.48C36.2294 41.48 37.2694 41.32 38.2294 41C40.5094 40.24 42.4294 38.72 43.7094 36.6C44.7894 34.84 45.4294 32.68 45.4294 30.24C45.4294 27.08 44.3494 24.4 42.6694 22.56ZM38.0694 38.24C37.2294 39.92 35.9894 40.84 34.3894 40.84C32.2694 40.84 30.7094 39.2 30.0294 36.88V24.04C30.7894 23.16 31.5494 22.52 32.3094 22.12C32.3094 22.12 32.3494 22.12 32.3494 22.08C33.1094 21.68 33.9094 21.52 34.7094 21.52C37.5894 21.52 39.4294 23.92 39.4294 30.68C39.4294 33.92 38.9494 36.52 38.0694 38.24ZM69.2341 39.92C67.3941 39.92 67.3941 38.84 67.3941 37L67.4741 29.64C67.3141 24.2 63.9541 20.4 59.4341 19.8C56.1941 19.36 53.7541 20.52 52.0341 22.2L52.8341 23.24C53.5541 22.72 54.2741 22.48 54.9141 22.4C55.4341 22.32 55.9141 22.36 56.2341 22.4C56.3941 22.4 56.5141 22.44 56.6741 22.48C56.7141 22.48 56.7541 22.52 56.7541 22.52C57.4341 22.72 57.7941 23.24 57.7941 23.88C57.7941 27.2 47.2341 28.36 47.2341 35.04C47.2341 38.92 50.3541 41.48 55.2341 41.48C58.2341 41.48 60.4741 40.44 62.0341 39.32C62.4741 40.28 63.4341 41.28 65.6741 41.32C67.7941 41.32 69.4741 40.44 69.9941 40.08V39.84C69.7541 39.88 69.5541 39.92 69.2341 39.92ZM58.3141 39.32C55.2341 39.32 53.3141 37.4 53.3141 34.48C53.3141 29.56 58.9941 27.6 58.9941 24.28C58.9941 22.84 57.9141 22.04 56.5141 21.88C57.1541 20.84 57.8341 20.16 58.9141 20.32C61.5541 20.68 61.7541 23.76 61.7941 28.76L62.1141 28.84L61.7941 28.76L61.7541 38.36V38.4C60.8341 38.92 59.6741 39.32 58.3141 39.32ZM90.0363 35.76C88.2363 38.2 86.0363 39.2 83.9563 39.2C80.1963 39.2 77.6363 36.08 77.6363 29.6C77.6363 23.88 79.6363 20.48 82.8763 20.48C85.2363 20.48 85.4763 23.48 87.0763 26.08L90.2763 23.28C88.6363 21.4 86.0363 19.88 82.3563 19.88C76.4363 19.88 71.5963 24.2 71.5963 31C71.5963 37.44 75.9163 41.48 81.4363 41.48C85.4363 41.48 88.3163 39.36 90.5163 36.04L90.0363 35.76ZM99.9634 33.44C100.003 33.28 100.083 33.12 100.163 33C100.203 32.96 100.203 32.92 100.243 32.92C100.483 32.68 100.803 32.52 101.203 32.4C103.963 31.6 110.163 33.16 112.323 29.04C113.843 26.12 112.483 22.96 108.843 21.04C108.523 20.88 108.203 20.72 107.883 20.6C106.483 20.04 105.163 19.84 104.003 19.92C103.923 19.88 103.803 19.88 103.723 19.88C102.843 19.88 101.963 20 101.123 20.2C96.4434 21.24 92.9634 25.24 92.9634 31C92.9634 37.44 97.2834 41.48 102.803 41.48C106.803 41.48 109.683 39.36 111.883 36L111.403 35.76C109.603 38.2 107.363 39.2 105.323 39.2C103.043 39.2 101.243 38.08 100.163 35.8C100.163 35.76 100.123 35.76 100.123 35.76C100.123 35.68 100.083 35.64 100.083 35.56C100.003 35.36 99.9634 35.16 99.9234 35C99.7634 34.36 99.8034 33.88 99.9234 33.52C99.9234 33.48 99.9234 33.44 99.9634 33.44ZM99.4034 33.52C99.3634 33.36 99.3234 33.2 99.2834 33.04C99.2834 32.88 99.2434 32.72 99.2034 32.56C99.0834 31.64 99.0034 30.68 99.0034 29.6C99.0034 24.88 100.363 21.76 102.643 20.76C103.123 20.56 103.683 20.48 104.243 20.48C104.243 20.48 104.283 20.48 104.363 20.48C104.403 20.48 104.443 20.48 104.523 20.48C104.523 20.48 104.563 20.48 104.603 20.48C105.603 20.6 108.563 21.28 108.043 25.4C108.003 25.92 107.803 26.48 107.523 27.04C106.283 29.4 103.723 29.92 101.723 30.68C101.643 30.72 101.603 30.72 101.523 30.76C101.443 30.8 101.403 30.8 101.323 30.84C99.4034 31.72 99.4034 33.32 99.4034 33.52ZM127.298 13.04H116.858V41H126.138C136.738 41 143.058 35.8 143.058 26.8C143.058 17.72 136.538 13.04 127.298 13.04ZM127.298 40.4C124.818 40.4 123.738 40.28 122.938 40.04V13.68H127.018C132.938 13.68 136.418 19 136.418 26.92C136.418 35.52 133.258 40.4 127.298 40.4ZM167.333 27.28C165.373 20.96 159.733 18.48 153.773 20.32C147.693 22.24 144.413 27.8 146.373 34.08C148.333 40.4 153.933 42.88 159.933 41.04C165.973 39.12 169.293 33.56 167.333 27.28ZM159.933 40.44C156.853 41.44 153.853 38 152.013 32.12C150.173 26.24 150.493 21.92 153.693 20.92C156.813 19.96 159.853 23.4 161.693 29.32C163.493 35.12 163.173 39.44 159.933 40.44ZM183.548 38.8C182.308 39.48 181.268 39.76 180.428 39.76C177.748 39.76 177.748 37.16 177.748 36.2V21.16H178.148C179.908 21.16 180.868 22.16 183.228 24.12H183.268V20.44H177.748V20.36V20.32C177.748 20.28 177.748 20.24 177.708 20.16C177.668 18.72 177.028 17.44 176.108 16.48C175.148 15.56 173.948 14.96 172.548 14.84C172.388 14.84 172.268 14.84 172.108 14.84V20.36H172.028L169.588 20.4V21.2H172.108V36.04C172.108 38 172.628 41.48 177.628 41.48C180.188 41.48 182.028 40.56 183.868 39.24L183.548 38.8Z" fill="white"/>
</svg>
