<svg width="1237" height="187" viewBox="0 0 1237 187" fill="none" xmlns="http://www.w3.org/2000/svg">
<path d="M130.2 108.2C130.2 78.8 90.4 67.6 64.4 58.8C41.8 51.2 38.4 48.8 38.4 42.4C38.4 35.2 47.4 32 61.8 32C79.2 32 92.4 36.8 92.4 54H124.4C124.4 26 105 3.99999 61.8 3.99999C25.4 3.99999 6.4 17.2 6.4 41.2C6.4 68.8 30.6 76.8 60.4 86.8C81 93.8 98.2 98.4 98.2 108.6C98.2 116.2 91.4 121 70.8 121C42.8 121 32 114.2 32 92.6H2.38419e-07C2.38419e-07 128.2 19 149 69.8 149C113.2 149 130.2 132.4 130.2 108.2ZM140.281 95.2C140.281 123.8 158.081 149 196.881 149C231.881 149 248.481 126 250.481 111.4H218.481C216.481 119 208.081 123 196.881 123C178.681 123 170.281 114.8 170.281 103.2H246.881V93.2C246.881 62.6 224.881 44 193.481 44C162.081 44 140.281 63.2 140.281 95.2ZM170.281 85.2C170.281 77.6 175.681 70 193.481 70C211.281 70 216.881 77.6 216.881 85.2H170.281ZM260.398 96.4C260.398 131.8 285.598 149 317.398 149C348.998 149 374.198 131.8 374.198 96.4C374.198 61.2 348.998 44 317.398 44C285.598 44 260.398 61.2 260.398 96.4ZM292.398 96.4C292.398 79.6 302.198 72 317.398 72C332.398 72 342.198 79.6 342.198 96.4C342.198 113.4 332.398 121 317.398 121C302.198 121 292.398 113.4 292.398 96.4ZM502.073 147L467.873 95.2L483.473 88C492.273 83.8 496.073 77.6 496.073 68V46H464.073L464.473 64.2L418.273 85.4V-2.86102e-06H386.273V147H418.273V118.4L440.473 108L465.673 147H502.073ZM588.356 44C566.756 44 554.156 58.2 550.156 76.2H542.156L548.156 58.2V-2.86102e-06H516.156V147H548.156V109.6C548.156 81.2 559.556 72 576.956 72C592.356 72 597.756 79 597.756 97.4V147H629.756V92.4C629.756 61.2 614.156 44 588.356 44ZM742.703 5.99999L683.703 56V5.99999H651.703V147H683.703V97.2L742.703 147H789.503L704.503 76.6L789.503 5.99999H742.703ZM791.453 119.4C791.453 129.8 796.853 149 828.253 149C856.453 149 866.253 134.8 870.053 118H878.053L873.053 130V132C873.053 141.6 878.453 147 888.053 147H910.253V119H895.653V90.6C895.653 57.4 871.253 44 843.453 44C815.253 44 793.453 59 793.453 84.6H823.453C823.453 75.4 830.653 70 843.453 70C857.253 70 863.653 75 863.653 83.2L831.853 87.6C801.853 91.8 791.453 102 791.453 119.4ZM823.453 113.4C823.453 107.6 828.253 106.2 837.853 104.8L863.653 101.2C863.653 113.6 852.053 121 834.453 121C829.053 121 823.453 119.2 823.453 113.4ZM983.011 72C998.411 72 1003.81 79 1003.81 97.4V147H1035.81V92.4C1035.81 61.2 1020.21 44 994.411 44C972.811 44 960.211 58.2 956.211 76.2H948.211L954.211 58.2V46H922.211V147H954.211V109.6C954.211 81.2 965.611 72 983.011 72ZM1168.15 46C1159.15 46 1148.75 47 1142.75 54.8C1132.15 47 1118.15 44 1102.75 44C1070.95 44 1045.75 56.8 1045.75 83.4C1045.75 116.6 1084.75 122 1121.75 108.8V116.8C1103.35 121.2 1082.55 123.6 1059.55 126L1062.95 144C1093.95 138.8 1130.15 132.2 1130.15 147C1130.15 158 1117.75 159 1052.35 159V187C1127.35 187 1162.35 183.6 1162.35 153.8C1162.35 132.4 1140.95 126.4 1117.95 127.8C1145.75 118.4 1163.55 106.4 1163.55 87.4C1163.55 82 1161.95 77.4 1160.75 75.8C1163.55 74 1167.15 74 1170.15 74H1176.95V46H1168.15ZM1104.75 98.8C1085.55 98.8 1077.75 94 1077.75 85.4C1077.75 77 1085.55 72 1104.75 72C1123.95 72 1131.55 77 1131.55 85.4C1131.55 94 1123.95 98.8 1104.75 98.8Z" fill="#111111"/>
<path d="M1214.76 149C1227.96 149 1236.96 139.4 1236.96 126.8C1236.96 114.6 1227.96 105 1214.76 105C1201.16 105 1192.96 114.6 1192.96 126.8C1192.96 139.4 1201.16 149 1214.76 149Z" fill="#FF490C"/>
</svg>
