<svg width="24" height="24" viewBox="0 0 24 24" fill="none" xmlns="http://www.w3.org/2000/svg">
<path d="M13.5374 12.2277C13.5374 15.9984 10.5069 19.0552 6.76883 19.0552C3.03073 19.0552 0 15.9977 0 12.2277C0 8.4577 3.0305 5.40002 6.76883 5.40002C10.5072 5.40002 13.5374 8.45701 13.5374 12.2277Z" fill="white"/>
<path d="M20.9628 12.2277C20.9628 15.777 19.4475 18.6554 17.5784 18.6554C15.7092 18.6554 14.1939 15.777 14.1939 12.2277C14.1939 8.67836 15.709 5.79993 17.5781 5.79993C19.4473 5.79993 20.9625 8.67744 20.9625 12.2277" fill="white"/>
<path d="M24 12.2277C24 15.4071 23.4672 17.986 22.8097 17.986C22.1522 17.986 21.6196 15.4077 21.6196 12.2277C21.6196 9.04772 22.1524 6.46948 22.8097 6.46948C23.4669 6.46948 24 9.04749 24 12.2277Z" fill="white"/>
</svg>
