<?xml version="1.0" standalone="no"?>
<!DOCTYPE svg PUBLIC "-//W3C//DTD SVG 20010904//EN"
 "http://www.w3.org/TR/2001/REC-SVG-20010904/DTD/svg10.dtd">
<svg version="1.0" xmlns="http://www.w3.org/2000/svg"
 width="512.000000pt" height="512.000000pt" viewBox="0 0 512.000000 512.000000"
 preserveAspectRatio="xMidYMid meet">
<metadata>
Created by potrace 1.14, written by Peter Selinger 2001-2017
</metadata>
<g transform="translate(0.000000,512.000000) scale(0.100000,-0.100000)"
fill="#000000" stroke="none">
<path d="M0 2560 l0 -2560 2560 0 2560 0 0 2560 0 2560 -2560 0 -2560 0 0
-2560z m2706 1234 c76 -278 142 -510 145 -516 4 -5 57 19 125 57 114 65 170
97 594 337 102 58 195 111 208 117 29 15 60 74 -255 -483 -142 -250 -250 -452
-245 -455 6 -3 238 -69 516 -146 278 -76 506 -142 506 -145 0 -3 -228 -69
-506 -146 -278 -76 -510 -142 -516 -145 -9 -6 57 -126 397 -724 56 -99 108
-190 114 -203 15 -29 74 -60 -483 255 -250 142 -452 250 -455 245 -3 -6 -69
-238 -146 -516 -76 -278 -142 -506 -145 -506 -3 0 -69 228 -146 506 -76 278
-142 510 -145 516 -6 9 -47 -13 -604 -329 -165 -93 -310 -175 -323 -182 -29
-15 -48 -54 171 334 318 561 338 598 328 604 -5 3 -237 69 -515 146 -278 76
-506 142 -506 145 0 3 228 69 506 146 278 76 510 142 515 145 6 3 -26 71 -74
155 -157 280 -349 619 -387 684 -20 36 -43 75 -49 88 -15 29 -50 47 324 -166
551 -312 608 -343 614 -334 3 6 69 238 146 516 76 278 142 506 145 506 3 0 69
-228 146 -506z"/>
</g>
</svg>
